<svg width="120" height="119" viewBox="0 0 120 119" fill="none" xmlns="http://www.w3.org/2000/svg">
<path d="M15.6665 25.5802C15.244 24.8939 14.749 24.2549 14.1681 23.7105C13.8776 23.4344 13.5674 23.1978 13.2373 22.9848C12.9073 22.7718 12.564 22.5982 12.201 22.4562C11.8445 22.3142 11.4748 22.2117 11.0986 22.1328C10.7223 22.0618 10.3461 22.0381 9.9698 22.0302C9.59354 22.0302 9.21728 22.0539 8.84762 22.1091C8.47796 22.1644 8.10831 22.2353 7.74525 22.33C7.38219 22.4247 7.02574 22.5351 6.67588 22.6692C6.32602 22.8033 6.00257 23.0163 5.67911 23.2136C5.11142 23.5764 4.52393 23.8762 3.91664 24.0498C3.30934 24.2154 2.67564 24.2707 2.06174 24.1208C1.75809 24.0419 1.45444 23.9236 1.1706 23.7579C1.02537 23.6711 0.886747 23.5764 0.761327 23.466C0.695316 23.4108 0.629313 23.3556 0.569903 23.2924C0.536898 23.2609 0.510492 23.2293 0.477487 23.1978L0.437881 23.1504C0.42468 23.1347 0.411478 23.1189 0.404877 23.111L0.371871 23.0794C0.279456 22.9848 0.13423 22.9927 0.0550175 23.1031C-0.010993 23.1978 -0.0175972 23.3319 0.0352106 23.4266C0.0550137 23.4581 0.0682211 23.4818 0.0814228 23.5054L0.121028 23.5764C0.147432 23.6238 0.180441 23.6711 0.206845 23.7105C0.266254 23.7973 0.332258 23.8841 0.398269 23.963C0.530291 24.1208 0.675515 24.2707 0.820738 24.4127C0.972563 24.5468 1.13099 24.673 1.29602 24.7834C1.46105 24.8939 1.63927 24.9885 1.8175 25.0753C2.53701 25.4145 3.32254 25.525 4.08826 25.4619C4.85398 25.3988 5.5999 25.1857 6.30621 24.8939C6.62306 24.7676 6.93992 24.6572 7.24357 24.5152C7.39539 24.4363 7.54722 24.3732 7.69904 24.2943C7.85087 24.2312 8.00269 24.1523 8.16112 24.0971C8.47137 23.9709 8.78162 23.8604 9.09187 23.7737C9.25029 23.7263 9.40871 23.6948 9.56054 23.6553C9.71896 23.6238 9.87739 23.5922 10.0358 23.5764C10.6695 23.4897 11.3098 23.4976 11.9369 23.6396C13.1977 23.9078 14.3661 24.7598 15.3365 25.9036C15.4223 26.0062 15.5609 26.0062 15.6467 25.9036C15.7259 25.8247 15.7259 25.6827 15.6665 25.5802Z" fill="#DAF5FE"/>
<path d="M119.957 47.724C119.402 46.8562 118.755 46.0437 118.003 45.3652C117.627 45.026 117.23 44.7183 116.808 44.458C116.386 44.1977 115.943 43.9768 115.481 43.8032C115.026 43.6297 114.55 43.5035 114.075 43.4167C113.6 43.3378 113.118 43.3062 112.643 43.3062C112.405 43.3062 112.167 43.322 111.923 43.3378L111.567 43.3772C111.448 43.3851 111.329 43.4088 111.21 43.4246C110.742 43.4956 110.273 43.5981 109.811 43.7322C109.58 43.7954 109.355 43.8663 109.124 43.9373C108.9 44.0162 108.669 44.0872 108.451 44.1819C108.002 44.3555 107.586 44.6158 107.17 44.8603C106.418 45.3258 105.632 45.6965 104.814 45.9095C104.002 46.1068 103.157 46.1541 102.352 45.9332C101.949 45.8228 101.553 45.6492 101.177 45.4204C100.992 45.3021 100.814 45.168 100.642 45.0181C100.556 44.9471 100.477 44.8682 100.391 44.7815C100.352 44.742 100.312 44.6947 100.272 44.6552L100.22 44.5921L100.173 44.529L100.16 44.5132C100.074 44.4028 99.9291 44.4028 99.8367 44.5053C99.7575 44.6 99.7443 44.742 99.8037 44.8524C99.8235 44.8919 99.8433 44.9156 99.8631 44.9471L99.9159 45.0339C99.9555 45.0891 99.9885 45.1443 100.028 45.1996C100.107 45.31 100.187 45.4126 100.272 45.5151C100.444 45.7123 100.629 45.9017 100.82 46.0752C101.012 46.2488 101.223 46.3987 101.434 46.5328C101.54 46.6038 101.652 46.6669 101.758 46.7221C101.87 46.7852 101.982 46.8325 102.094 46.8878C103.005 47.298 104.009 47.4163 104.972 47.3216C105.943 47.227 106.88 46.9351 107.778 46.5406C107.982 46.4539 108.187 46.3671 108.392 46.2882C108.497 46.2488 108.596 46.2014 108.695 46.162C108.794 46.1225 108.9 46.0752 108.999 46.0279C109.197 45.9332 109.402 45.8464 109.6 45.7518C109.804 45.665 110.002 45.5782 110.207 45.4993C110.616 45.3416 111.025 45.2074 111.441 45.097C111.646 45.0418 111.857 44.9944 112.062 44.955C112.273 44.9156 112.478 44.8761 112.689 44.8603C113.527 44.7578 114.372 44.7972 115.197 45.0023C115.607 45.1049 116.016 45.2469 116.412 45.4362C116.808 45.6255 117.191 45.8543 117.561 46.1147C117.93 46.375 118.293 46.6748 118.63 46.9982C118.967 47.3295 119.297 47.6845 119.607 48.0553C119.693 48.1579 119.831 48.1579 119.917 48.0553C120.016 47.9764 120.023 47.8265 119.957 47.724Z" fill="#DAF5FE"/>
<path d="M76.4558 117.066C76.4558 117.066 82.3769 93.0923 82.8522 87.7989C83.3275 82.5134 80.0203 84.1464 80.0203 84.1464C80.0203 84.1464 82.806 74.0724 80.7927 71.6742C78.7793 69.2839 76.9641 73.7411 76.9641 73.7411C76.9641 73.7411 76.3568 61.5056 74.2048 61.5056C70.2046 61.4977 70.2838 74.8455 70.2838 74.8455C70.2838 74.8455 69.2606 69.6153 67.1219 71.051C63.894 73.2126 68.5213 83.6888 68.5213 83.6888C68.5213 83.6888 64.4088 83.6888 62.9632 86.1738C60.369 90.6231 76.4558 117.066 76.4558 117.066Z" fill="#3ED5FC"/>
<path d="M74.5217 113.887C74.5217 113.887 91.5855 110.479 95.2952 106.866C99.005 103.253 95.3349 101.62 95.3349 101.62C95.3349 101.62 103.91 96.3661 103.811 92.8004C103.712 89.2268 99.4539 91.0412 99.4539 91.0412C99.4539 91.0412 106.675 81.196 104.966 79.3263C101.784 75.8474 93.4337 86.0791 93.4337 86.0791C93.4337 86.0791 95.9157 81.2118 93.3017 80.4465C89.3609 79.2869 86.4564 91.2857 86.4564 91.2857C86.4564 91.2857 87.1957 86.5446 84.4827 87.1757C79.6045 88.3117 74.5217 113.887 74.5217 113.887Z" fill="#013D5D"/>
<path d="M84.4762 87.1757C87.1958 86.584 86.4499 91.2857 86.4499 91.2857C86.4499 91.2857 89.3543 79.2869 93.2952 80.4466C95.9092 81.2197 93.4272 86.0791 93.4272 86.0791C93.4272 86.0791 101.778 75.8474 104.959 79.3264L74.5746 113.887C75.1225 110.597 79.9148 88.1618 84.4762 87.1757Z" fill="#3190C1"/>
<path d="M70.0923 101.02C70.0923 101.02 57.1278 97.1076 54.461 94.0389C51.7942 90.9781 54.7118 89.9999 54.7118 89.9999C54.7118 89.9999 48.388 85.306 48.6521 82.5686C48.9161 79.8233 52.1044 81.5431 52.1044 81.5431C52.1044 81.5431 47.0612 73.4177 48.4804 72.1081C51.1208 69.6705 57.009 78.1746 57.009 78.1746C57.009 78.1746 55.3587 74.2381 57.4117 73.8437C60.5076 73.2441 62.1116 82.7106 62.1116 82.7106C62.1116 82.7106 61.7948 79.0029 63.8543 79.6971C67.5311 80.9357 70.0923 101.02 70.0923 101.02Z" fill="#3190C1"/>
<path d="M69.6699 116.703C69.6699 116.703 78.654 105.785 83.1823 104.641C87.7106 103.506 86.8921 107.355 86.8921 107.355C86.8921 107.355 95.8695 97.9755 97.9488 100.247C100.028 102.519 97.7772 104.712 97.7772 104.712C97.7772 104.712 105.256 103.127 106.326 106.061C107.969 110.566 95.6715 113.019 95.6715 113.019C95.6715 113.019 100.827 113.445 99.6321 116.27C97.83 120.537 69.6699 116.703 69.6699 116.703Z" fill="#013D5D"/>
<path d="M106.332 106.061C105.263 103.127 97.784 104.712 97.784 104.712C97.784 104.712 100.035 102.519 97.9557 100.247C95.8763 97.9754 87.1761 106.077 87.1761 106.077C87.1761 106.077 89.2291 101.391 84.7007 102.527C80.1724 103.663 69.6701 116.703 69.6701 116.703L106.332 106.061Z" fill="#3ED5FC"/>
<path d="M33.4301 117.421H78.621C80.3439 117.421 81.7433 115.686 81.7433 113.548V111.244C81.7433 109.106 80.3439 107.371 78.621 107.371H33.4301C35.4963 110.171 35.5359 114.455 33.516 117.303L33.4301 117.421Z" fill="#FF61A4"/>
<path d="M34.13 108.515H59.1942C60.9171 108.515 62.3165 110.25 62.3165 112.388C62.3165 114.526 60.9171 116.262 59.1942 116.262H34.13C35.2984 113.887 35.2984 110.889 34.13 108.515Z" fill="#DFF0F4"/>
<path d="M49.3057 100.389C49.2397 100.239 49.3387 100.074 49.4905 100.074H73.4061C75.2808 100.074 76.7991 101.707 76.7991 103.726C76.7991 105.746 75.2808 107.379 73.4061 107.379H49.4905C49.3387 107.379 49.2397 107.205 49.3057 107.063C50.2496 104.941 50.243 102.488 49.3057 100.389Z" fill="#013D5D"/>
<path d="M49.4577 100.744H61.3066C63.5047 100.744 65.287 102.117 65.287 103.805C65.287 105.493 63.5047 106.866 61.3066 106.866H49.3784C50.197 104.918 50.2168 102.701 49.4577 100.744Z" fill="#DFF0F4"/>
<path d="M52.5206 102.196H54.0652C54.3952 102.196 54.6659 102.33 54.6659 102.496V102.519H52.5206V102.196Z" fill="#FF61A4"/>
<path d="M51.2005 102.945C51.2005 102.535 51.6032 102.196 52.0983 102.196H54.0786C53.7024 102.196 53.3987 102.448 53.3987 102.764L53.4053 110.763L52.3095 109.738L51.1939 110.763L51.2005 102.945Z" fill="#FF9AC5"/>
<path d="M53.7022 99.8056H67.6172C68.8516 99.8056 69.8484 98.3856 69.8484 96.6343C69.8484 94.883 68.845 93.463 67.6172 93.463H53.7022C54.765 95.2222 54.8046 97.794 53.8012 99.6242L53.7022 99.8056Z" fill="#DFF0F4"/>
<path d="M69.8483 96.6343C69.8483 94.883 68.8251 93.463 67.5643 93.463H53.4381C53.3721 93.463 53.3192 93.392 53.3192 93.2974C53.3192 93.2106 53.3721 93.1317 53.4381 93.1317H75.842C77.2349 93.1317 78.3636 94.6937 78.3636 96.6264C78.3636 98.5592 77.2349 100.121 75.842 100.121H53.4381C53.3721 100.121 53.3192 100.05 53.3192 99.9555C53.3192 99.8608 53.3721 99.7898 53.4381 99.7898H67.5643C68.8251 99.8056 69.8483 98.3856 69.8483 96.6343Z" fill="#3190C1"/>
<path d="M56.1315 95.025H57.6762C58.0062 95.025 58.2769 95.1591 58.2769 95.3169V95.3406H56.1315V95.025Z" fill="#013D5D"/>
<path d="M54.8176 95.7587C54.8176 95.3564 55.2203 95.025 55.7154 95.025H57.6957C57.3194 95.025 57.0158 95.2696 57.0158 95.5772L57.0224 103.419L55.9266 102.409L54.811 103.419L54.8176 95.7587Z" fill="#3190C1"/>
<path d="M45.3715 86.3474H79.1161C80.2185 86.3474 81.1162 87.4202 81.1162 88.7377V90.7493C81.1162 92.0667 80.2185 93.1396 79.1161 93.1396H45.3715L45.3913 93.1159C46.9161 91.2226 46.9029 88.2249 45.3715 86.3474Z" fill="#FF9AC5"/>
<path d="M46.0052 87.3492H65.036C66.1384 87.3492 67.0361 88.4221 67.0361 89.7395C67.0361 91.0569 66.1384 92.1298 65.036 92.1298H46.0052C46.7049 90.6546 46.7049 88.8323 46.0052 87.3492Z" fill="#EEFBFF"/>
<path d="M58.884 31.694C61.6367 29.0276 68.8517 32.7117 69.9276 34.4314C70.9838 36.1196 73.1291 53.964 71.5515 55.2025C69.9738 56.4332 65.0824 58.9339 63.0493 56.733C61.0228 54.5241 58.884 31.694 58.884 31.694Z" fill="#FF61A4"/>
<path d="M57.3459 31.197C57.3459 31.197 52.6658 28.3413 52.0321 26.9213C51.3984 25.5013 48.7514 20.7207 48.7514 20.7207C48.7514 20.7207 47.3982 20.9258 47.0417 21.6516C47.484 23.6238 48.8306 29.0749 50.5733 30.6842C52.3159 32.2935 56.9037 35.6068 56.9037 35.6068L57.3459 31.197Z" fill="#FFA283"/>
<path d="M47.5234 23.4344C48.1835 23.2135 49.0218 22.7876 49.6357 22.4562C49.3717 22.0302 49.1869 21.7068 49.1473 21.5569C48.9624 20.8469 50.1374 18.0701 49.946 17.8413C49.7546 17.6125 49.035 19.0562 48.9162 18.9221C48.7974 18.7801 48.6258 15.6088 48.2363 15.6167C47.8403 15.6246 48.2363 18.3146 47.9921 18.3146C47.7412 18.3225 47.3122 15.1197 46.9227 15.451C46.5332 15.7823 47.464 18.2594 47.2066 18.3856C46.9491 18.5197 46.1966 16.1689 45.9194 16.1768C45.6421 16.1847 45.8533 16.7053 46.0514 17.3206C46.2494 17.9439 46.5861 18.788 46.4276 18.7958C46.2692 18.7958 45.4837 17.3206 45.2064 17.4311C44.9292 17.5415 47.1339 21.8251 47.3188 22.7718C47.3386 22.8822 47.4112 23.111 47.5234 23.4344Z" fill="#FFA283"/>
<path d="M56.3095 65.4658C56.3095 65.4658 56.1643 68.9526 56.1643 71.0826C56.1643 73.2126 58.9037 81.551 58.6595 82.7422C58.4086 83.9334 61.2405 83.7756 61.2405 83.7756C61.2405 83.7756 61.4319 77.299 60.7058 74.2302C59.9731 71.1694 60.7058 64.8663 60.7058 64.8663L56.3095 65.4658Z" fill="#FFA283"/>
<path d="M63.1876 63.7855C63.1876 63.7855 64.1052 69.5522 64.8577 70.8696C65.6036 72.187 69.6302 81.1724 69.6302 82.3162C69.6302 83.468 72.1584 82.5292 72.1584 82.5292C72.1584 82.5292 70.0197 72.6998 69.1682 69.7179C68.3166 66.7359 67.9932 64.2667 67.9932 64.2667L63.1876 63.7855Z" fill="#FFA283"/>
<path d="M55.4514 56.1728C55.1609 58.2791 52.5931 69.1893 52.5931 69.1893C56.5405 70.4752 67.8745 71.3035 72.1124 68.0375C72.1124 68.0375 68.5545 53.0568 66.693 50.8322L64.7522 51.5343L56.6197 50.2799C56.6131 50.2799 55.656 54.674 55.4514 56.1728Z" fill="#013D5D"/>
<path d="M54.3491 86.4026H62.1318C62.1318 86.4026 62.2902 83.042 61.7555 82.403C61.2208 81.764 61.366 82.4819 60.4749 82.8921C59.5837 83.3023 59.0028 82.3162 58.6002 81.835C58.1909 81.3459 58.4814 83.3891 56.7717 83.3891C55.062 83.3891 53.9596 85.4638 54.3491 86.4026Z" fill="#FE544E"/>
<path d="M69.5445 81.9454C69.1419 82.0559 67.8745 83.2944 67.4586 84.6276C67.0361 85.9608 67.1616 86.442 67.1616 86.442C67.1616 86.442 68.4488 87.1284 70.9176 86.9075C73.3864 86.6945 73.0101 86.371 73.0101 86.371C73.0101 86.371 72.8319 83.3339 72.416 82.4109C71.9935 81.4879 70.2509 81.7561 69.5445 81.9454Z" fill="#FE544E"/>
<path d="M71.7757 39.7563C71.7757 39.7563 74.7066 44.6947 75.9278 45.2153C77.149 45.7439 81.3274 48.0947 81.3274 48.0947C81.3274 48.0947 81.3538 49.6646 80.8257 50.1695C79.1953 49.9407 74.6538 49.1597 73.1289 47.4005C71.6041 45.6413 68.3233 40.8765 68.3233 40.8765L71.7757 39.7563Z" fill="#FFA283"/>
<path d="M79.334 49.8697C79.4198 49.0808 79.6377 48.0711 79.8225 47.3295C80.1988 47.5741 80.4826 47.7397 80.608 47.7634C81.2021 47.8739 83.2485 46.1462 83.4597 46.3355C83.6709 46.5249 82.6148 47.5425 82.7468 47.6609C82.8722 47.7792 85.4268 47.5268 85.473 47.9764C85.5192 48.4261 83.3211 48.3472 83.3541 48.6312C83.3805 48.9152 85.9945 48.9625 85.7899 49.4516C85.5786 49.9407 83.4729 49.2228 83.4069 49.5384C83.3409 49.8539 85.3146 50.3825 85.3476 50.698C85.3806 51.0136 84.9383 50.8479 84.4168 50.7059C83.8954 50.5639 83.1692 50.3036 83.189 50.485C83.2088 50.6665 84.4961 51.3528 84.4432 51.6841C84.3904 52.0155 80.6674 50.0985 79.8885 50.0117C79.7961 50.0038 79.6047 49.9486 79.334 49.8697Z" fill="#FFA283"/>
<path d="M73.9146 42.0677C73.9146 42.0677 72.2577 45.1522 70.5678 45.2232C69.7823 44.0241 68.4621 42.8093 68.4489 43.0302C68.4357 43.2747 66.9834 47.2743 66.693 50.8321C64.4618 52.3783 56.6198 51.9129 56.6132 50.2799C56.6066 49.0335 57.9466 38.5178 56.4944 37.1609C55.9663 36.6639 51.9924 33.0903 51.9924 33.0903C51.9924 33.0903 53.1542 29.6035 54.3094 28.2308C54.3094 28.2308 56.7518 29.4063 58.9037 30.4397C61.729 31.7966 64.0262 32.4592 65.6104 33.2954C70.416 35.8593 71.9078 38.005 73.9146 42.0677Z" fill="#EEFBFF"/>
<path d="M65.7952 33.398C64.3232 38.644 65.1087 47.9922 67.1881 50.7769C67.7888 49.0414 66.6138 43.7875 68.3234 34.8732C68.3697 34.4156 65.9405 32.9167 65.7952 33.398Z" fill="#FF61A4"/>
<path d="M61.8278 31.623C59.7023 34.3841 57.009 45.5861 56.943 46.0989C57.0354 37.1451 59.4052 31.9386 59.8805 30.9051C60.1973 30.6448 61.8674 31.3548 61.8278 31.623Z" fill="#FF61A4"/>
<path d="M61.8277 29.5246C61.9201 31.1418 61.5372 32.475 61.3128 33.0035C61.3128 33.0035 62.699 34.6286 65.0094 33.682C64.8906 32.2383 65.016 30.6132 65.3593 28.8146L61.8277 29.5246Z" fill="#FFA283"/>
<path opacity="0.68" d="M61.7359 31.4337C61.8217 30.8814 61.8745 30.2267 61.8349 29.5246L65.3665 28.8146C65.2806 29.2643 65.208 29.706 65.1486 30.1399C64.033 31.1102 62.792 31.623 61.7359 31.4337Z" fill="#FF7F4C"/>
<path d="M61.6366 21.1309C60.3626 22.5351 58.5605 27.2605 60.0656 29.4536C61.9799 32.2304 65.386 30.4397 67.4521 26.8424C69.5249 23.253 63.6037 18.9694 61.6366 21.1309Z" fill="#FFA283"/>
<path d="M65.5245 22.9848C65.5245 22.9848 67.0098 23.04 66.4223 24.7045C65.8414 26.3691 64.7852 26.9292 65.3463 27.6076C65.7358 28.0651 65.4057 29.0591 65.2275 29.6035C65.1351 29.8875 65.5443 29.2879 66.0988 29.2327C67.4586 29.0907 68.4554 28.6016 68.8713 26.6925C68.8713 26.6925 70.0858 24.6966 69.7822 22.3695C69.5578 20.6576 68.396 20.4052 68.396 20.4052C68.396 20.4052 68.0725 19.6242 66.5543 18.7564C64.4089 17.5258 61.1942 16.6817 61.1942 19.0483C61.2008 20.5077 60.6662 22.6692 65.5245 22.9848Z" fill="#FE544E"/>
<path d="M67.2342 21.478C69.3334 17.6599 73.492 19.427 73.9145 22.1644C74.2709 24.4916 75.8816 25.5565 78.555 25.6828C82.179 25.8642 80.9842 32.0332 78.8719 32.3882C81.2152 37.1215 73.2148 40.0482 73.4524 35.3859C70.5216 34.7548 69.1353 32.8221 69.7294 30.2977C70.3235 27.7733 70.6272 21.2808 68.6138 22.4484C66.5213 23.2293 67.2342 21.478 67.2342 21.478Z" fill="#FE544E"/>
<path d="M65.1087 26.2981C65.2143 26.235 66.6401 25.4855 67.0824 26.3927C67.4389 27.1343 66.7524 28.712 65.683 28.712C64.607 28.712 63.7555 27.1264 65.1087 26.2981Z" fill="#FFA283"/>
<path d="M62.1315 86.4026C62.1315 86.4026 62.1645 85.7005 62.1513 84.8801C61.2404 85.3534 56.2301 85.2745 54.4149 85.2351C54.2564 85.669 54.2234 86.0949 54.3554 86.4026H62.1315Z" fill="#EEFBFF"/>
<path d="M70.911 86.9075C73.3798 86.6945 73.0035 86.371 73.0035 86.371C73.0035 86.371 72.9639 85.669 72.8715 84.8406C71.1486 86.6787 68.462 85.74 67.287 85.1956C67.0626 86.1028 67.1484 86.442 67.1484 86.442C67.1484 86.442 68.4422 87.1284 70.911 86.9075Z" fill="#EEFBFF"/>
<path d="M55.8273 3.58625C55.0219 3.66514 53.2001 4.53291 51.398 4.72224C50.3418 4.83268 49.9127 4.24102 48.9754 3.66514C44.5197 0.935628 45.0675 2.84471 44.5197 2.54494C44.4404 3.04193 43.8794 7.34131 43.7473 8.19329C43.6219 8.98217 43.8529 9.55805 44.4602 9.91305C45.391 10.4574 46.3085 11.049 47.2723 11.5066C49.7345 12.682 51.662 12.3665 54.0846 12.0509C54.7249 11.9641 55.121 11.5302 55.2398 10.7729C55.7943 7.26242 55.7943 3.91758 55.8273 3.58625Z" fill="#013D5D"/>
<path d="M41.853 6.10283C41.2655 7.19148 41.074 7.34925 41.5493 7.49914C41.8398 7.58591 42.1368 7.64114 42.4273 7.68058C42.6385 7.71214 42.7111 7.58591 42.6715 7.33347C42.6121 6.9627 42.5461 6.59981 42.4801 6.23693C42.8497 5.92138 42.9751 5.31394 42.7771 4.81695C42.7375 4.7144 42.7309 4.8564 43.0478 2.81321C45.1007 4.06752 46.5463 4.95896 49.0547 6.48938C49.728 6.89959 50.4409 7.05737 51.1869 6.9627C53.7745 6.64715 56.3621 6.32372 58.9497 6.00816C59.2996 5.96083 59.5174 5.66106 59.4778 5.25873C59.4514 4.95896 59.2732 4.80118 59.0685 4.67496C58.4942 4.32785 52.8833 0.912015 52.3156 0.564909C51.5697 0.0994709 50.7842 -0.0740861 49.9525 0.028468C47.4111 0.344019 44.8631 0.643796 42.3216 0.959347C41.9718 0.998791 41.7936 1.15656 41.7341 1.46422C41.6681 1.80344 41.7804 2.08744 42.1038 2.24521C42.3414 2.35566 42.3877 2.50554 42.3282 2.78954C42.0642 4.07541 42.1632 4.47774 41.8728 4.79329C41.6615 5.03784 41.6681 5.7715 41.853 6.10283Z" fill="#3190C1"/>
</svg>
